<svg width="640" height="640" viewBox="0 0 640 640" fill="none" xmlns="http://www.w3.org/2000/svg">
<path opacity="0.4" d="M561.083 191.733L320.017 331.2L78.95 191.733C89.6166 172 105.083 154.667 122.417 145.067L264.817 66.1333C295.217 49.0666 344.817 49.0666 375.217 66.1333L517.617 145.067C534.95 154.667 550.417 172 561.083 191.733Z" fill="#A143BA"/>
<path opacity="0.6" d="M320.017 331.2V586.667C300.017 586.667 280.017 582.4 264.817 573.867L122.417 494.933C90.15 477.067 63.75 432.267 63.75 395.467V244.533C63.75 227.467 69.6167 208.8 78.95 191.733L320.017 331.2Z" fill="#A143BA"/>
<path d="M576.283 244.533V395.467C576.283 432.267 549.883 477.067 517.617 494.933L375.217 573.867C360.017 582.4 340.017 586.667 320.017 586.667V331.2L561.083 191.733C570.417 208.8 576.283 227.467 576.283 244.533Z" fill="#A143BA"/>
</svg>
